# xmcd
#
# Track frame offsets: 
#        150
#        37341
#        65298
#        93873
#        129648
#        146280
#        160043
#        233300
#        302882
#
# Disc length: 4725 seconds
#
# Revision: 1
# Processed by: cddbd v1.5.2PL0 Copyright (c) Steve Scherf et al.
# Submitted via: ExactAudioCopy v1.1
#
DISCID=6c127309
DTITLE=Ellington, Duke  - featuring Mahalia Jackson - Duke Ellington fe
DTITLE=aturing Mahalia Ellington, Duke - Black, Brown and Beige
DYEAR=1958
DGENRE=Jazz
TTITLE0=Part I
TTITLE1=Part II
TTITLE2=Part III (aka Light)
TTITLE3=Part IV (aka Come Sunday)
TTITLE4=Part V (aka Come Sunday Interlude)
TTITLE5=Part VI (23rd Psalm)
TTITLE6=Portrait Of Ella Fitzgerald (1957)
TTITLE7=Mood Indigo (1950)
TTITLE8=Sohpisticated Lady (1950)
EXTD=YEAR: 2009
EXTT0=
EXTT1=
EXTT2=
EXTT3=
EXTT4=
EXTT5=
EXTT6=
EXTT7=
EXTT8=
PLAYORDER=
